<svg width="129" height="54" viewBox="0 0 129 54" fill="none" xmlns="http://www.w3.org/2000/svg">
<path d="M69.9911 11.2442L62.984 4.23703V11.2442H52.4739V28.7614L59.4797 35.7685V18.2513H69.9911V28.7614L76.9982 35.7685V18.2513L69.9911 11.2442Z" fill="black"/>
<path d="M4.47229 49.6961C4.47229 47.5381 4.47229 45.3627 4.47229 43.17C4.47229 40.9772 4.47229 38.8019 4.47229 36.6439C4.9615 36.6439 5.45567 36.6439 5.95481 36.6439C6.45643 36.6439 6.94564 36.6439 7.42243 36.6439C7.42243 38.8019 7.42243 40.9772 7.42243 43.17C7.42243 45.3627 7.42243 47.5381 7.42243 49.6961C6.94564 49.6961 6.45643 49.6961 5.95481 49.6961C5.45567 49.6961 4.9615 49.6961 4.47229 49.6961ZM11.0505 39.3966C10.7053 39.3966 10.3924 39.3134 10.1118 39.1471C9.8337 38.9807 9.61021 38.7597 9.44134 38.484C9.27496 38.2109 9.19177 37.9079 9.19177 37.5751C9.19177 37.2399 9.27496 36.9382 9.44134 36.67C9.61021 36.4018 9.8337 36.1845 10.1118 36.0181C10.3924 35.8517 10.7053 35.7686 11.0505 35.7686C11.3858 35.7686 11.6937 35.8517 11.9743 36.0181C12.2524 36.1845 12.4759 36.4018 12.6448 36.67C12.8112 36.9382 12.8944 37.2399 12.8944 37.5751C12.8944 37.9079 12.8112 38.2109 12.6448 38.484C12.4759 38.7597 12.2524 38.9807 11.9743 39.1471C11.6937 39.3134 11.3858 39.3966 11.0505 39.3966ZM9.568 49.6961C9.568 48.1713 9.568 46.6304 9.568 45.0734C9.568 43.5189 9.568 41.978 9.568 40.4508C10.0572 40.4508 10.5514 40.4508 11.0505 40.4508C11.5521 40.4508 12.0413 40.4508 12.5181 40.4508C12.5181 41.978 12.5181 43.5189 12.5181 45.0734C12.5181 46.6304 12.5181 48.1713 12.5181 49.6961C12.0413 49.6961 11.5521 49.6961 11.0505 49.6961C10.5514 49.6961 10.0572 49.6961 9.568 49.6961ZM16.7012 49.6961C16.1773 48.1713 15.6446 46.6304 15.1032 45.0734C14.5594 43.5189 14.0255 41.978 13.5015 40.4508C14.0131 40.4508 14.5284 40.4508 15.0474 40.4508C15.5664 40.4508 16.0817 40.4508 16.5932 40.4508C16.9036 41.3944 17.2165 42.3393 17.5319 43.2855C17.8497 44.2341 18.1577 45.179 18.4557 46.1201C18.7636 45.179 19.0728 44.2341 19.3832 43.2855C19.6936 42.3393 19.9978 41.3944 20.2958 40.4508C20.7974 40.4508 21.304 40.4508 21.8156 40.4508C22.3271 40.4508 22.8337 40.4508 23.3353 40.4508C22.8114 41.978 22.2775 43.5189 21.7336 45.0734C21.1923 46.6304 20.6596 48.1713 20.1356 49.6961C19.5744 49.6961 19.002 49.6961 18.4184 49.6961C17.8349 49.6961 17.2625 49.6961 16.7012 49.6961ZM32.007 49.2677C31.185 49.6129 30.368 49.8277 29.556 49.9121C28.7464 49.9941 27.9816 49.9494 27.2614 49.778C26.5388 49.6042 25.8981 49.3087 25.3393 48.8915C24.7781 48.4743 24.3398 47.9441 24.0244 47.3009C23.7091 46.6578 23.5514 45.9128 23.5514 45.066C23.5514 44.3632 23.6668 43.7163 23.8978 43.1253C24.1312 42.5343 24.4627 42.0153 24.8923 41.5683C25.3195 41.1213 25.8261 40.7761 26.4121 40.5327C26.9957 40.2894 27.6327 40.1677 28.323 40.1677C28.9438 40.1677 29.5038 40.2683 30.003 40.4694C30.5046 40.673 30.9404 40.9561 31.3104 41.3187C31.6804 41.6837 31.9784 42.1158 32.2044 42.615C32.4304 43.1166 32.5732 43.6654 32.6327 44.2614C32.6923 44.8574 32.6563 45.4894 32.5247 46.1574C31.5488 46.1574 30.5654 46.1574 29.5746 46.1574C28.5862 46.1574 27.6029 46.1574 26.6244 46.1574C26.8504 46.6093 27.2291 46.9309 27.7605 47.1221C28.292 47.3133 28.924 47.3729 29.6565 47.3009C30.3891 47.2289 31.1726 47.0377 32.007 46.7273C32.007 47.1445 32.007 47.5679 32.007 47.9975C32.007 48.4271 32.007 48.8505 32.007 49.2677ZM28.2522 42.8124C27.9071 42.8124 27.588 42.908 27.2949 43.0992C27.0044 43.2904 26.7809 43.5822 26.6244 43.9746C27.1608 43.9746 27.7009 43.9746 28.2448 43.9746C28.7861 43.9746 29.325 43.9746 29.8614 43.9746C29.7174 43.5698 29.5063 43.2743 29.2282 43.088C28.9476 42.9043 28.6222 42.8124 28.2522 42.8124ZM45.8995 49.2677C45.0775 49.6129 44.2605 49.8277 43.4485 49.9121C42.6389 49.9941 41.874 49.9494 41.1539 49.778C40.4313 49.6042 39.7906 49.3087 39.2318 48.8915C38.6706 48.4743 38.2323 47.9441 37.9169 47.3009C37.6016 46.6578 37.4439 45.9128 37.4439 45.066C37.4439 44.3632 37.5593 43.7163 37.7903 43.1253C38.0237 42.5343 38.3552 42.0153 38.7848 41.5683C39.212 41.1213 39.7186 40.7761 40.3046 40.5327C40.8882 40.2894 41.5252 40.1677 42.2155 40.1677C42.8363 40.1677 43.3963 40.2683 43.8954 40.4694C44.3971 40.673 44.8329 40.9561 45.2029 41.3187C45.5729 41.6837 45.8709 42.1158 46.0969 42.615C46.3229 43.1166 46.4656 43.6654 46.5252 44.2614C46.5848 44.8574 46.5488 45.4894 46.4172 46.1574C45.4413 46.1574 44.4579 46.1574 43.4671 46.1574C42.4787 46.1574 41.4953 46.1574 40.5169 46.1574C40.7429 46.6093 41.1216 46.9309 41.653 47.1221C42.1845 47.3133 42.8165 47.3729 43.549 47.3009C44.2816 47.2289 45.0651 47.0377 45.8995 46.7273C45.8995 47.1445 45.8995 47.5679 45.8995 47.9975C45.8995 48.4271 45.8995 48.8505 45.8995 49.2677ZM42.1447 42.8124C41.7995 42.8124 41.4804 42.908 41.1874 43.0992C40.8969 43.2904 40.6734 43.5822 40.5169 43.9746C41.0533 43.9746 41.5934 43.9746 42.1373 43.9746C42.6786 43.9746 43.2175 43.9746 43.7539 43.9746C43.6099 43.5698 43.3988 43.2743 43.1207 43.088C42.84 42.9043 42.5147 42.8124 42.1447 42.8124ZM50.0289 49.6961C49.5049 48.1713 48.9723 46.6304 48.4309 45.0734C47.8871 43.5189 47.3532 41.978 46.8292 40.4508C47.3408 40.4508 47.856 40.4508 48.375 40.4508C48.8941 40.4508 49.4093 40.4508 49.9209 40.4508C50.2313 41.3944 50.5442 42.3393 50.8596 43.2855C51.1774 44.2341 51.4854 45.179 51.7834 46.1201C52.0913 45.179 52.4004 44.2341 52.7109 43.2855C53.0213 42.3393 53.3255 41.3944 53.6235 40.4508C54.1251 40.4508 54.6317 40.4508 55.1432 40.4508C55.6548 40.4508 56.1614 40.4508 56.663 40.4508C56.139 41.978 55.6051 43.5189 55.0613 45.0734C54.5199 46.6304 53.9873 48.1713 53.4633 49.6961C52.9021 49.6961 52.3297 49.6961 51.7461 49.6961C51.1625 49.6961 50.5901 49.6961 50.0289 49.6961ZM65.3346 49.2677C64.5127 49.6129 63.6957 49.8277 62.8836 49.9121C62.0741 49.9941 61.3092 49.9494 60.5891 49.778C59.8665 49.6042 59.2258 49.3087 58.667 48.8915C58.1058 48.4743 57.6675 47.9441 57.3521 47.3009C57.0367 46.6578 56.8791 45.9128 56.8791 45.066C56.8791 44.3632 56.9945 43.7163 57.2255 43.1253C57.4589 42.5343 57.7904 42.0153 58.22 41.5683C58.6472 41.1213 59.1537 40.7761 59.7398 40.5327C60.3234 40.2894 60.9603 40.1677 61.6507 40.1677C62.2715 40.1677 62.8315 40.2683 63.3306 40.4694C63.8323 40.673 64.2681 40.9561 64.6381 41.3187C65.0081 41.6837 65.3061 42.1158 65.5321 42.615C65.758 43.1166 65.9008 43.6654 65.9604 44.2614C66.02 44.8574 65.984 45.4894 65.8524 46.1574C64.8765 46.1574 63.8931 46.1574 62.9023 46.1574C61.9139 46.1574 60.9305 46.1574 59.9521 46.1574C60.1781 46.6093 60.5568 46.9309 61.0882 47.1221C61.6196 47.3133 62.2516 47.3729 62.9842 47.3009C63.7168 47.2289 64.5003 47.0377 65.3346 46.7273C65.3346 47.1445 65.3346 47.5679 65.3346 47.9975C65.3346 48.4271 65.3346 48.8505 65.3346 49.2677ZM61.5799 42.8124C61.2347 42.8124 60.9156 42.908 60.6226 43.0992C60.3321 43.2904 60.1086 43.5822 59.9521 43.9746C60.4885 43.9746 61.0286 43.9746 61.5725 43.9746C62.1138 43.9746 62.6527 43.9746 63.1891 43.9746C63.0451 43.5698 62.834 43.2743 62.5558 43.088C62.2752 42.9043 61.9499 42.8124 61.5799 42.8124ZM67.516 49.6961C67.516 48.1713 67.516 46.6304 67.516 45.0734C67.516 43.5189 67.516 41.978 67.516 40.4508C68.0052 40.4508 68.4993 40.4508 68.9985 40.4508C69.5001 40.4508 69.9893 40.4508 70.4661 40.4508C70.4661 40.5352 70.4661 40.6134 70.4661 40.6855C70.4661 40.7575 70.4661 40.8345 70.4661 40.9164C70.7889 40.6904 71.149 40.5154 71.5463 40.3912C71.9461 40.2645 72.3782 40.2012 72.8426 40.2012C73.523 40.2012 74.1227 40.3564 74.6417 40.6668C75.1608 40.9772 75.5655 41.4218 75.8561 42.0004C76.1491 42.5765 76.2956 43.2706 76.2956 44.0826C76.2956 45.0113 76.2956 45.9463 76.2956 46.8875C76.2956 47.8311 76.2956 48.7673 76.2956 49.6961C75.8188 49.6961 75.3296 49.6961 74.828 49.6961C74.3289 49.6961 73.8347 49.6961 73.3455 49.6961C73.3455 48.8368 73.3455 47.9665 73.3455 47.0849C73.3455 46.2033 73.3455 45.3329 73.3455 44.4737C73.3455 43.9969 73.235 43.6133 73.014 43.3227C72.7929 43.0297 72.444 42.8832 71.9672 42.8832C71.4905 42.8832 71.1217 43.021 70.8609 43.2966C70.5977 43.5698 70.4661 43.9622 70.4661 44.4737C70.4661 45.3329 70.4661 46.2033 70.4661 47.0849C70.4661 47.9665 70.4661 48.8368 70.4661 49.6961C69.9893 49.6961 69.5001 49.6961 68.9985 49.6961C68.4993 49.6961 68.0052 49.6961 67.516 49.6961ZM79.0834 49.6961C79.0834 48.5984 79.0834 47.4959 79.0834 46.3883C79.0834 45.2808 79.0834 44.1844 79.0834 43.0992C78.845 43.0992 78.6041 43.0992 78.3607 43.0992C78.1149 43.0992 77.8727 43.0992 77.6344 43.0992C77.6344 42.6572 77.6344 42.2164 77.6344 41.7769C77.6344 41.3348 77.6344 40.8928 77.6344 40.4508C77.8727 40.4508 78.1149 40.4508 78.3607 40.4508C78.6041 40.4508 78.845 40.4508 79.0834 40.4508C79.0834 40.0336 79.0834 39.6201 79.0834 39.2104C79.0834 38.7982 79.0834 38.3897 79.0834 37.9849C79.5726 37.9849 80.068 37.9849 80.5696 37.9849C81.0687 37.9849 81.5567 37.9849 82.0335 37.9849C82.0335 38.3897 82.0335 38.7982 82.0335 39.2104C82.0335 39.6201 82.0335 40.0336 82.0335 40.4508C82.3091 40.4508 82.5898 40.4508 82.8753 40.4508C83.1609 40.4508 83.4403 40.4508 83.7134 40.4508C83.7134 40.8928 83.7134 41.3348 83.7134 41.7769C83.7134 42.2164 83.7134 42.6572 83.7134 43.0992C83.4403 43.0992 83.1609 43.0992 82.8753 43.0992C82.5898 43.0992 82.3091 43.0992 82.0335 43.0992C82.0335 44.1844 82.0335 45.2808 82.0335 46.3883C82.0335 47.4959 82.0335 48.5984 82.0335 49.6961C81.5567 49.6961 81.0687 49.6961 80.5696 49.6961C80.068 49.6961 79.5726 49.6961 79.0834 49.6961ZM88.4158 43.0992C88.4158 42.6572 88.4158 42.2164 88.4158 41.7769C88.4158 41.3348 88.4158 40.8928 88.4158 40.4508C88.6542 40.4508 88.8963 40.4508 89.1422 40.4508C89.3855 40.4508 89.6264 40.4508 89.8648 40.4508C89.8648 40.3912 89.8648 40.3378 89.8648 40.2906C89.8648 40.2434 89.8648 40.1963 89.8648 40.1491C89.8648 39.3495 90.0287 38.679 90.3565 38.1376C90.6843 37.5938 91.1201 37.1766 91.6639 36.886C92.2053 36.593 92.8013 36.4254 93.4519 36.3832C94.1 36.3434 94.7457 36.4303 95.3889 36.6439C95.3889 37.0859 95.3889 37.5391 95.3889 38.0035C95.3889 38.4679 95.3889 38.9261 95.3889 39.378C94.6737 39.1396 94.0665 39.0924 93.5674 39.2365C93.0657 39.3805 92.8149 39.6909 92.8149 40.1677C92.8149 40.2149 92.8149 40.2621 92.8149 40.3092C92.8149 40.3564 92.8149 40.4036 92.8149 40.4508C93.1849 40.4508 93.5549 40.4508 93.925 40.4508C94.295 40.4508 94.6637 40.4508 95.0313 40.4508C95.0313 40.8928 95.0313 41.3348 95.0313 41.7769C95.0313 42.2164 95.0313 42.6572 95.0313 43.0992C94.6637 43.0992 94.295 43.0992 93.925 43.0992C93.5549 43.0992 93.1849 43.0992 92.8149 43.0992C92.8149 44.1844 92.8149 45.2808 92.8149 46.3883C92.8149 47.4959 92.8149 48.5984 92.8149 49.6961C92.3381 49.6961 91.8502 49.6961 91.351 49.6961C90.8494 49.6961 90.354 49.6961 89.8648 49.6961C89.8648 48.5984 89.8648 47.4959 89.8648 46.3883C89.8648 45.2808 89.8648 44.1844 89.8648 43.0992C89.6264 43.0992 89.3855 43.0992 89.1422 43.0992C88.8963 43.0992 88.6542 43.0992 88.4158 43.0992ZM96.6419 49.6961C96.6419 47.5381 96.6419 45.3627 96.6419 43.17C96.6419 40.9772 96.6419 38.8019 96.6419 36.6439C97.1311 36.6439 97.6253 36.6439 98.1244 36.6439C98.6261 36.6439 99.1153 36.6439 99.5921 36.6439C99.5921 38.8019 99.5921 40.9772 99.5921 43.17C99.5921 45.3627 99.5921 47.5381 99.5921 49.6961C99.1153 49.6961 98.6261 49.6961 98.1244 49.6961C97.6253 49.6961 97.1311 49.6961 96.6419 49.6961ZM106.029 49.9829C105.338 49.9829 104.695 49.86 104.099 49.6141C103.503 49.3708 102.984 49.0256 102.542 48.5786C102.1 48.1316 101.757 47.6101 101.514 47.0141C101.271 46.4181 101.149 45.7687 101.149 45.066C101.149 44.3632 101.271 43.7138 101.514 43.1178C101.757 42.5219 102.1 42.0028 102.542 41.5608C102.984 41.1188 103.503 40.7761 104.099 40.5327C104.695 40.2894 105.338 40.1677 106.029 40.1677C106.732 40.1677 107.378 40.2894 107.969 40.5327C108.558 40.7761 109.073 41.1188 109.515 41.5608C109.957 42.0028 110.3 42.5219 110.543 43.1178C110.787 43.7138 110.908 44.3632 110.908 45.066C110.908 45.7687 110.787 46.4181 110.543 47.0141C110.3 47.6101 109.957 48.1316 109.515 48.5786C109.073 49.0256 108.558 49.3708 107.969 49.6141C107.378 49.86 106.732 49.9829 106.029 49.9829ZM106.029 47.3196C106.612 47.3196 107.08 47.1072 107.433 46.6826C107.783 46.2604 107.958 45.7216 107.958 45.066C107.958 44.398 107.783 43.8579 107.433 43.4456C107.08 43.0359 106.612 42.831 106.029 42.831C105.445 42.831 104.977 43.0359 104.624 43.4456C104.274 43.8579 104.099 44.398 104.099 45.066C104.099 45.7216 104.274 46.2604 104.624 46.6826C104.977 47.1072 105.445 47.3196 106.029 47.3196ZM114.075 49.6961C113.61 48.1713 113.142 46.6304 112.67 45.0734C112.201 43.5189 111.733 41.978 111.266 40.4508C111.755 40.4508 112.253 40.4508 112.76 40.4508C113.266 40.4508 113.764 40.4508 114.253 40.4508C114.492 41.2852 114.733 42.1295 114.976 42.9837C115.222 43.8355 115.458 44.6786 115.684 45.513C115.887 44.6786 116.093 43.8355 116.302 42.9837C116.511 42.1295 116.709 41.2852 116.898 40.4508C117.315 40.4508 117.736 40.4508 118.161 40.4508C118.583 40.4508 119.003 40.4508 119.42 40.4508C119.623 41.2852 119.83 42.1345 120.038 42.9986C120.247 43.8628 120.447 44.7183 120.638 45.5651C120.876 44.7183 121.117 43.8628 121.361 42.9986C121.604 42.1345 121.84 41.2852 122.068 40.4508C122.555 40.4508 123.047 40.4508 123.543 40.4508C124.038 40.4508 124.523 40.4508 125 40.4508C124.535 41.978 124.067 43.5189 123.595 45.0734C123.124 46.6304 122.656 48.1713 122.191 49.6961C121.714 49.6961 121.231 49.6961 120.742 49.6961C120.255 49.6961 119.774 49.6961 119.297 49.6961C119.106 48.956 118.912 48.2111 118.716 47.4611C118.517 46.7112 118.323 45.9724 118.135 45.2448C117.944 45.9724 117.75 46.7112 117.554 47.4611C117.355 48.2111 117.161 48.956 116.973 49.6961C116.496 49.6961 116.013 49.6961 115.524 49.6961C115.034 49.6961 114.551 49.6961 114.075 49.6961Z" fill="black"/>
</svg>
