<svg width="129" height="70" viewBox="0 0 129 70" fill="none" xmlns="http://www.w3.org/2000/svg">
<path d="M69.9943 18.8641L62.9872 11.857V18.8641H52.4771V36.3814L59.483 43.3885V25.8713H69.9943V36.3814L77.0015 43.3885V25.8713L69.9943 18.8641Z" fill="black"/>
<path d="M4.47229 64.9048C4.47229 62.7469 4.47229 60.5715 4.47229 58.3788C4.47229 56.186 4.47229 54.0107 4.47229 51.8527C4.9615 51.8527 5.45567 51.8527 5.95481 51.8527C6.45643 51.8527 6.94564 51.8527 7.42243 51.8527C7.42243 54.0107 7.42243 56.186 7.42243 58.3788C7.42243 60.5715 7.42243 62.7469 7.42243 64.9048C6.94564 64.9048 6.45643 64.9048 5.95481 64.9048C5.45567 64.9048 4.9615 64.9048 4.47229 64.9048ZM11.0505 54.6054C10.7053 54.6054 10.3924 54.5222 10.1118 54.3558C9.8337 54.1895 9.61021 53.9684 9.44134 53.6928C9.27496 53.4196 9.19177 53.1167 9.19177 52.7839C9.19177 52.4487 9.27496 52.147 9.44134 51.8788C9.61021 51.6106 9.8337 51.3933 10.1118 51.2269C10.3924 51.0605 10.7053 50.9773 11.0505 50.9773C11.3858 50.9773 11.6937 51.0605 11.9743 51.2269C12.2524 51.3933 12.4759 51.6106 12.6448 51.8788C12.8112 52.147 12.8944 52.4487 12.8944 52.7839C12.8944 53.1167 12.8112 53.4196 12.6448 53.6928C12.4759 53.9684 12.2524 54.1895 11.9743 54.3558C11.6937 54.5222 11.3858 54.6054 11.0505 54.6054ZM9.568 64.9048C9.568 63.3801 9.568 61.8392 9.568 60.2822C9.568 58.7277 9.568 57.1868 9.568 55.6596C10.0572 55.6596 10.5514 55.6596 11.0505 55.6596C11.5521 55.6596 12.0413 55.6596 12.5181 55.6596C12.5181 57.1868 12.5181 58.7277 12.5181 60.2822C12.5181 61.8392 12.5181 63.3801 12.5181 64.9048C12.0413 64.9048 11.5521 64.9048 11.0505 64.9048C10.5514 64.9048 10.0572 64.9048 9.568 64.9048ZM16.7012 64.9048C16.1773 63.3801 15.6446 61.8392 15.1032 60.2822C14.5594 58.7277 14.0255 57.1868 13.5015 55.6596C14.0131 55.6596 14.5284 55.6596 15.0474 55.6596C15.5664 55.6596 16.0817 55.6596 16.5932 55.6596C16.9036 56.6032 17.2165 57.5481 17.5319 58.4942C17.8497 59.4428 18.1577 60.3877 18.4557 61.3289C18.7636 60.3877 19.0728 59.4428 19.3832 58.4942C19.6936 57.5481 19.9978 56.6032 20.2958 55.6596C20.7974 55.6596 21.304 55.6596 21.8156 55.6596C22.3271 55.6596 22.8337 55.6596 23.3353 55.6596C22.8114 57.1868 22.2774 58.7277 21.7336 60.2822C21.1923 61.8392 20.6596 63.3801 20.1356 64.9048C19.5744 64.9048 19.002 64.9048 18.4184 64.9048C17.8349 64.9048 17.2625 64.9048 16.7012 64.9048ZM32.007 64.4765C31.185 64.8216 30.368 65.0364 29.556 65.1209C28.7464 65.2028 27.9816 65.1581 27.2614 64.9868C26.5388 64.813 25.8981 64.5174 25.3393 64.1002C24.7781 63.6831 24.3398 63.1529 24.0244 62.5097C23.7091 61.8665 23.5514 61.1215 23.5514 60.2747C23.5514 59.572 23.6668 58.9251 23.8978 58.3341C24.1312 57.743 24.4627 57.224 24.8923 56.777C25.3195 56.33 25.8261 55.9849 26.4121 55.7415C26.9957 55.4981 27.6327 55.3765 28.323 55.3765C28.9438 55.3765 29.5038 55.477 30.003 55.6782C30.5046 55.8818 30.9404 56.1649 31.3104 56.5275C31.6804 56.8925 31.9784 57.3246 32.2044 57.8237C32.4304 58.3254 32.5732 58.8742 32.6327 59.4702C32.6923 60.0662 32.6563 60.6981 32.5247 61.3662C31.5488 61.3662 30.5654 61.3662 29.5746 61.3662C28.5862 61.3662 27.6029 61.3662 26.6244 61.3662C26.8504 61.8181 27.2291 62.1397 27.7605 62.3309C28.292 62.5221 28.924 62.5817 29.6565 62.5097C30.3891 62.4377 31.1726 62.2465 32.007 61.9361C32.007 62.3533 32.007 62.7767 32.007 63.2063C32.007 63.6359 32.007 64.0593 32.007 64.4765ZM28.2522 58.0212C27.9071 58.0212 27.588 58.1168 27.2949 58.308C27.0044 58.4992 26.7809 58.791 26.6244 59.1833C27.1608 59.1833 27.7009 59.1833 28.2448 59.1833C28.7861 59.1833 29.325 59.1833 29.8614 59.1833C29.7174 58.7786 29.5063 58.4831 29.2282 58.2968C28.9476 58.113 28.6222 58.0212 28.2522 58.0212ZM45.8995 64.4765C45.0775 64.8216 44.2605 65.0364 43.4485 65.1209C42.6389 65.2028 41.874 65.1581 41.1539 64.9868C40.4313 64.813 39.7906 64.5174 39.2318 64.1002C38.6706 63.6831 38.2323 63.1529 37.9169 62.5097C37.6016 61.8665 37.4439 61.1215 37.4439 60.2747C37.4439 59.572 37.5593 58.9251 37.7903 58.3341C38.0237 57.743 38.3552 57.224 38.7848 56.777C39.212 56.33 39.7186 55.9849 40.3046 55.7415C40.8882 55.4981 41.5251 55.3765 42.2155 55.3765C42.8363 55.3765 43.3963 55.477 43.8954 55.6782C44.3971 55.8818 44.8329 56.1649 45.2029 56.5275C45.5729 56.8925 45.8709 57.3246 46.0969 57.8237C46.3229 58.3254 46.4656 58.8742 46.5252 59.4702C46.5848 60.0662 46.5488 60.6981 46.4172 61.3662C45.4413 61.3662 44.4579 61.3662 43.4671 61.3662C42.4787 61.3662 41.4953 61.3662 40.5169 61.3662C40.7429 61.8181 41.1216 62.1397 41.653 62.3309C42.1845 62.5221 42.8165 62.5817 43.549 62.5097C44.2816 62.4377 45.0651 62.2465 45.8995 61.9361C45.8995 62.3533 45.8995 62.7767 45.8995 63.2063C45.8995 63.6359 45.8995 64.0593 45.8995 64.4765ZM42.1447 58.0212C41.7996 58.0212 41.4804 58.1168 41.1874 58.308C40.8969 58.4992 40.6734 58.791 40.5169 59.1833C41.0533 59.1833 41.5934 59.1833 42.1373 59.1833C42.6786 59.1833 43.2175 59.1833 43.7539 59.1833C43.6099 58.7786 43.3988 58.4831 43.1207 58.2968C42.84 58.113 42.5147 58.0212 42.1447 58.0212ZM50.0289 64.9048C49.5049 63.3801 48.9723 61.8392 48.4309 60.2822C47.8871 58.7277 47.3532 57.1868 46.8292 55.6596C47.3408 55.6596 47.856 55.6596 48.375 55.6596C48.894 55.6596 49.4093 55.6596 49.9209 55.6596C50.2313 56.6032 50.5442 57.5481 50.8596 58.4942C51.1774 59.4428 51.4854 60.3877 51.7834 61.3289C52.0913 60.3877 52.4004 59.4428 52.7109 58.4942C53.0213 57.5481 53.3255 56.6032 53.6235 55.6596C54.1251 55.6596 54.6317 55.6596 55.1432 55.6596C55.6548 55.6596 56.1614 55.6596 56.663 55.6596C56.139 57.1868 55.6051 58.7277 55.0613 60.2822C54.5199 61.8392 53.9873 63.3801 53.4633 64.9048C52.9021 64.9048 52.3297 64.9048 51.7461 64.9048C51.1625 64.9048 50.5901 64.9048 50.0289 64.9048ZM65.3346 64.4765C64.5127 64.8216 63.6957 65.0364 62.8836 65.1209C62.0741 65.2028 61.3092 65.1581 60.5891 64.9868C59.8664 64.813 59.2258 64.5174 58.667 64.1002C58.1058 63.6831 57.6675 63.1529 57.3521 62.5097C57.0367 61.8665 56.8791 61.1215 56.8791 60.2747C56.8791 59.572 56.9945 58.9251 57.2255 58.3341C57.4589 57.743 57.7904 57.224 58.22 56.777C58.6472 56.33 59.1537 55.9849 59.7398 55.7415C60.3234 55.4981 60.9603 55.3765 61.6507 55.3765C62.2715 55.3765 62.8315 55.477 63.3306 55.6782C63.8323 55.8818 64.2681 56.1649 64.6381 56.5275C65.0081 56.8925 65.3061 57.3246 65.5321 57.8237C65.758 58.3254 65.9008 58.8742 65.9604 59.4702C66.02 60.0662 65.984 60.6981 65.8524 61.3662C64.8765 61.3662 63.8931 61.3662 62.9023 61.3662C61.9139 61.3662 60.9305 61.3662 59.9521 61.3662C60.1781 61.8181 60.5568 62.1397 61.0882 62.3309C61.6196 62.5221 62.2516 62.5817 62.9842 62.5097C63.7168 62.4377 64.5003 62.2465 65.3346 61.9361C65.3346 62.3533 65.3346 62.7767 65.3346 63.2063C65.3346 63.6359 65.3346 64.0593 65.3346 64.4765ZM61.5799 58.0212C61.2347 58.0212 60.9156 58.1168 60.6226 58.308C60.3321 58.4992 60.1086 58.791 59.9521 59.1833C60.4885 59.1833 61.0286 59.1833 61.5725 59.1833C62.1138 59.1833 62.6527 59.1833 63.1891 59.1833C63.0451 58.7786 62.834 58.4831 62.5558 58.2968C62.2752 58.113 61.9499 58.0212 61.5799 58.0212ZM67.516 64.9048C67.516 63.3801 67.516 61.8392 67.516 60.2822C67.516 58.7277 67.516 57.1868 67.516 55.6596C68.0052 55.6596 68.4993 55.6596 68.9985 55.6596C69.5001 55.6596 69.9893 55.6596 70.4661 55.6596C70.4661 55.744 70.4661 55.8222 70.4661 55.8942C70.4661 55.9662 70.4661 56.0432 70.4661 56.1252C70.7889 55.8992 71.149 55.7241 71.5463 55.6C71.9461 55.4733 72.3782 55.41 72.8426 55.41C73.523 55.41 74.1227 55.5652 74.6418 55.8756C75.1608 56.186 75.5655 56.6305 75.8561 57.2091C76.1491 57.7853 76.2956 58.4793 76.2956 59.2914C76.2956 60.2201 76.2956 61.1551 76.2956 62.0962C76.2956 63.0399 76.2956 63.9761 76.2956 64.9048C75.8188 64.9048 75.3296 64.9048 74.828 64.9048C74.3289 64.9048 73.8347 64.9048 73.3455 64.9048C73.3455 64.0456 73.3455 63.1752 73.3455 62.2937C73.3455 61.4121 73.3455 60.5417 73.3455 59.6825C73.3455 59.2057 73.235 58.822 73.014 58.5315C72.7929 58.2385 72.444 58.0919 71.9672 58.0919C71.4905 58.0919 71.1217 58.2298 70.8609 58.5054C70.5977 58.7786 70.4661 59.1709 70.4661 59.6825C70.4661 60.5417 70.4661 61.4121 70.4661 62.2937C70.4661 63.1752 70.4661 64.0456 70.4661 64.9048C69.9893 64.9048 69.5001 64.9048 68.9985 64.9048C68.4993 64.9048 68.0052 64.9048 67.516 64.9048ZM79.0834 64.9048C79.0834 63.8072 79.0834 62.7046 79.0834 61.5971C79.0834 60.4896 79.0834 59.3932 79.0834 58.308C78.845 58.308 78.6041 58.308 78.3607 58.308C78.1149 58.308 77.8728 58.308 77.6344 58.308C77.6344 57.866 77.6344 57.4252 77.6344 56.9856C77.6344 56.5436 77.6344 56.1016 77.6344 55.6596C77.8728 55.6596 78.1149 55.6596 78.3607 55.6596C78.6041 55.6596 78.845 55.6596 79.0834 55.6596C79.0834 55.2424 79.0834 54.8289 79.0834 54.4192C79.0834 54.0069 79.0834 53.5984 79.0834 53.1937C79.5726 53.1937 80.068 53.1937 80.5696 53.1937C81.0687 53.1937 81.5567 53.1937 82.0335 53.1937C82.0335 53.5984 82.0335 54.0069 82.0335 54.4192C82.0335 54.8289 82.0335 55.2424 82.0335 55.6596C82.3091 55.6596 82.5898 55.6596 82.8753 55.6596C83.1609 55.6596 83.4403 55.6596 83.7134 55.6596C83.7134 56.1016 83.7134 56.5436 83.7134 56.9856C83.7134 57.4252 83.7134 57.866 83.7134 58.308C83.4403 58.308 83.1609 58.308 82.8753 58.308C82.5898 58.308 82.3091 58.308 82.0335 58.308C82.0335 59.3932 82.0335 60.4896 82.0335 61.5971C82.0335 62.7046 82.0335 63.8072 82.0335 64.9048C81.5567 64.9048 81.0687 64.9048 80.5696 64.9048C80.068 64.9048 79.5726 64.9048 79.0834 64.9048ZM88.4158 58.308C88.4158 57.866 88.4158 57.4252 88.4158 56.9856C88.4158 56.5436 88.4158 56.1016 88.4158 55.6596C88.6542 55.6596 88.8963 55.6596 89.1421 55.6596C89.3855 55.6596 89.6264 55.6596 89.8648 55.6596C89.8648 55.6 89.8648 55.5466 89.8648 55.4994C89.8648 55.4522 89.8648 55.405 89.8648 55.3578C89.8648 54.5582 90.0287 53.8877 90.3565 53.3464C90.6843 52.8025 91.1201 52.3853 91.6639 52.0948C92.2053 51.8018 92.8013 51.6342 93.4519 51.5919C94.1 51.5522 94.7457 51.6391 95.3889 51.8527C95.3889 52.2947 95.3889 52.7479 95.3889 53.2123C95.3889 53.6767 95.3889 54.1348 95.3889 54.5868C94.6737 54.3484 94.0665 54.3012 93.5674 54.4452C93.0657 54.5893 92.8149 54.8997 92.8149 55.3765C92.8149 55.4236 92.8149 55.4708 92.8149 55.518C92.8149 55.5652 92.8149 55.6124 92.8149 55.6596C93.1849 55.6596 93.5549 55.6596 93.925 55.6596C94.295 55.6596 94.6637 55.6596 95.0313 55.6596C95.0313 56.1016 95.0313 56.5436 95.0313 56.9856C95.0313 57.4252 95.0313 57.866 95.0313 58.308C94.6637 58.308 94.295 58.308 93.925 58.308C93.5549 58.308 93.1849 58.308 92.8149 58.308C92.8149 59.3932 92.8149 60.4896 92.8149 61.5971C92.8149 62.7046 92.8149 63.8072 92.8149 64.9048C92.3381 64.9048 91.8502 64.9048 91.351 64.9048C90.8494 64.9048 90.354 64.9048 89.8648 64.9048C89.8648 63.8072 89.8648 62.7046 89.8648 61.5971C89.8648 60.4896 89.8648 59.3932 89.8648 58.308C89.6264 58.308 89.3855 58.308 89.1421 58.308C88.8963 58.308 88.6542 58.308 88.4158 58.308ZM96.6419 64.9048C96.6419 62.7469 96.6419 60.5715 96.6419 58.3788C96.6419 56.186 96.6419 54.0107 96.6419 51.8527C97.1311 51.8527 97.6253 51.8527 98.1244 51.8527C98.6261 51.8527 99.1153 51.8527 99.5921 51.8527C99.5921 54.0107 99.5921 56.186 99.5921 58.3788C99.5921 60.5715 99.5921 62.7469 99.5921 64.9048C99.1153 64.9048 98.6261 64.9048 98.1244 64.9048C97.6253 64.9048 97.1311 64.9048 96.6419 64.9048ZM106.029 65.1917C105.338 65.1917 104.695 65.0687 104.099 64.8229C103.503 64.5795 102.984 64.2343 102.542 63.7874C102.1 63.3404 101.757 62.8189 101.514 62.2229C101.271 61.6269 101.149 60.9775 101.149 60.2747C101.149 59.572 101.271 58.9226 101.514 58.3266C101.757 57.7306 102.1 57.2116 102.542 56.7696C102.984 56.3276 103.503 55.9849 104.099 55.7415C104.695 55.4981 105.338 55.3765 106.029 55.3765C106.732 55.3765 107.378 55.4981 107.969 55.7415C108.558 55.9849 109.073 56.3276 109.515 56.7696C109.957 57.2116 110.3 57.7306 110.543 58.3266C110.787 58.9226 110.908 59.572 110.908 60.2747C110.908 60.9775 110.787 61.6269 110.543 62.2229C110.3 62.8189 109.957 63.3404 109.515 63.7874C109.073 64.2343 108.558 64.5795 107.969 64.8229C107.378 65.0687 106.732 65.1917 106.029 65.1917ZM106.029 62.5283C106.612 62.5283 107.08 62.316 107.433 61.8914C107.783 61.4692 107.958 60.9303 107.958 60.2747C107.958 59.6067 107.783 59.0666 107.433 58.6544C107.08 58.2447 106.612 58.0398 106.029 58.0398C105.445 58.0398 104.977 58.2447 104.624 58.6544C104.274 59.0666 104.099 59.6067 104.099 60.2747C104.099 60.9303 104.274 61.4692 104.624 61.8914C104.977 62.316 105.445 62.5283 106.029 62.5283ZM114.075 64.9048C113.61 63.3801 113.142 61.8392 112.67 60.2822C112.201 58.7277 111.733 57.1868 111.266 55.6596C111.755 55.6596 112.253 55.6596 112.76 55.6596C113.266 55.6596 113.764 55.6596 114.253 55.6596C114.492 56.4939 114.733 57.3383 114.976 58.1925C115.222 59.0443 115.458 59.8874 115.684 60.7217C115.887 59.8874 116.093 59.0443 116.302 58.1925C116.511 57.3383 116.709 56.4939 116.898 55.6596C117.315 55.6596 117.736 55.6596 118.161 55.6596C118.583 55.6596 119.003 55.6596 119.42 55.6596C119.623 56.4939 119.83 57.3432 120.038 58.2074C120.247 59.0716 120.447 59.9271 120.638 60.7739C120.876 59.9271 121.117 59.0716 121.361 58.2074C121.604 57.3432 121.84 56.4939 122.068 55.6596C122.555 55.6596 123.047 55.6596 123.543 55.6596C124.038 55.6596 124.523 55.6596 125 55.6596C124.535 57.1868 124.067 58.7277 123.595 60.2822C123.124 61.8392 122.656 63.3801 122.191 64.9048C121.714 64.9048 121.231 64.9048 120.742 64.9048C120.255 64.9048 119.774 64.9048 119.297 64.9048C119.106 64.1648 118.912 63.4198 118.716 62.6699C118.517 61.9199 118.323 61.1811 118.135 60.4535C117.944 61.1811 117.75 61.9199 117.554 62.6699C117.355 63.4198 117.161 64.1648 116.973 64.9048C116.496 64.9048 116.013 64.9048 115.524 64.9048C115.034 64.9048 114.551 64.9048 114.075 64.9048Z" fill="black"/>
</svg>
